# xmcd
# 
# Track frame offsets:
#   150
#   16402
#   35437
#   50582
#   66350
#   81687
#   98090
#   115837
#   136202
#   151525
#   166290
#   184530
#   201975
#   223545
#   242372
# 
# Disc length: 3419 seconds
# 
# Revision: 2
# Processed by: cddbd v1.5.1PL2 Copyright (c) Steve Scherf et al.
# Submitted via: Synapstar 1.0 
# 
DISCID=c60d590f
DTITLE=Various Artist - MM6331
DYEAR=1900
DGENRE=Country
TTITLE0=Faith Hill - If My Heart Had Wings
TTITLE1=Travis Tritt - It's A Great Day To Be Alive
TTITLE2=Patty Loveless - The Last Thing on My Mind
TTITLE3=Kenny Chesney - Don't Happen Twice
TTITLE4=LeAnn Rimes - But I Do Love You
TTITLE5=Vince Gill - Shoot Straight From Your Heart
TTITLE6=Phil Vassar - Rose Bouquet
TTITLE7=Sara Evans - I Could Not Ask For More
TTITLE8=Billy Ray Cyrus - Burn Down The Trailer Park
TTITLE9=Lorrie Morgan and Sammy Kershaw - He Drinks Tequila
TTITLE10=Teri Clark - No Fear
TTITLE11=Montgomery Gentry - She Couldn't Change Me
TTITLE12=Sons Of The Desert - What I Did Right
TTITLE13=Soggy Bottom Boys - I Am A Man Of Constant Sorrow
TTITLE14=John Michael Montgomery - That's What I Like About You
EXTD=MediaType: Karaoke CD+G Producer: Music Maestro
EXTT0=
EXTT1=
EXTT2=
EXTT3=
EXTT4=
EXTT5=
EXTT6=
EXTT7=
EXTT8=
EXTT9=
EXTT10=
EXTT11=
EXTT12=
EXTT13=
EXTT14=
PLAYORDER=
